<?xml version="1.0" encoding="utf-8"?>
<!-- Generator: Adobe Illustrator 24.3.0, SVG Export Plug-In . SVG Version: 6.00 Build 0)  -->
<svg version="1.1" id="Layer_1" xmlns="http://www.w3.org/2000/svg" xmlns:xlink="http://www.w3.org/1999/xlink" x="0px" y="0px"
	 viewBox="0 0 624.3 198.4" style="enable-background:new 0 0 624.3 198.4;" xml:space="preserve">
<style type="text/css">
	.st0{fill:#143A85;}
	.st1{fill-rule:evenodd;clip-rule:evenodd;fill:#143A85;}
	.st2{clip-path:url(#SVGID_4_);fill:url(#SVGID_5_);}
	.st3{clip-path:url(#SVGID_7_);fill:url(#SVGID_8_);}
	.st4{fill:#008C3C;}
	.st5{fill:url(#SVGID_9_);}
	.st6{fill:url(#SVGID_10_);}
	.st7{fill:url(#SVGID_11_);}
	.st8{fill:url(#SVGID_12_);}
	.st9{fill:url(#SVGID_13_);}
</style>
<g>
	<g>
		<g>
			<g>
				<path class="st0" d="M269,45.2c0,1.1-0.2,2.5-0.6,4.3c-0.4,1.8-0.8,3.3-1.4,4.4c-0.6,1.1-1.2,1.7-1.9,1.7c-0.5,0-1.1-0.3-1.8-1
					c-0.7-0.6-1.6-1.3-2.7-2.1c-1.1-0.7-2.5-1.4-4.3-2.1c-1.7-0.6-3.9-1-6.5-1c-2.9,0-5.5,0.6-7.8,1.7c-2.4,1.1-4.5,2.6-6.3,4.5
					c-1.9,1.9-3.5,4-4.9,6.5c-1.4,2.4-2.5,5-3.5,7.6s-1.6,5.2-2,7.9c-0.4,2.6-0.7,5-0.7,7.3c0,2.7,0.3,5.1,1,7.1s1.7,3.7,2.9,5.1
					c1.3,1.4,2.8,2.4,4.7,3c1.9,0.7,3.9,1,6.3,1c2.7,0,5.1-0.3,7-0.9s3.6-1.2,5-1.9c1.4-0.7,2.5-1.3,3.4-1.9s1.7-0.9,2.5-0.9
					c0.5,0,0.8,0.2,1,0.6s0.3,0.9,0.3,1.5c0,0.3,0,0.7-0.1,1.2s-0.2,1.2-0.3,1.8c-0.1,0.7-0.2,1.4-0.4,2.2c-0.2,0.8-0.3,1.5-0.5,2.2
					s-0.4,1.3-0.7,1.9c-0.3,0.6-0.6,1.1-1,1.5s-1.3,1-2.5,1.7s-2.7,1.3-4.5,1.9s-3.8,1.1-6,1.5s-4.6,0.6-7.2,0.6
					c-4.2,0-8-0.6-11.4-1.7s-6.2-2.8-8.6-5.1c-2.4-2.3-4.2-5.1-5.4-8.6c-1.3-3.4-1.9-7.5-1.9-12c0-3.6,0.4-7.3,1.1-11.2
					c0.7-3.9,1.8-7.7,3.3-11.4c1.5-3.7,3.4-7.2,5.6-10.5c2.3-3.3,5-6.2,8.1-8.7s6.6-4.5,10.6-5.9c4-1.5,8.4-2.2,13.2-2.2
					c2.7,0,5.3,0.3,7.7,0.8c2.4,0.6,4.5,1.3,6.3,2.2c1.8,0.9,3.1,1.8,3.8,2.5C268.7,43.1,269,44,269,45.2z"/>
				<path class="st0" d="M337.8,65c0,2.3-0.1,4.8-0.4,7.4c-0.3,2.6-0.8,5.2-1.4,7.9c-0.7,2.7-1.6,5.4-2.7,8
					c-1.1,2.6-2.6,5.2-4.3,7.6s-3.7,4.7-6.1,6.8c-2.3,2.1-5,3.9-8.1,5.4s-6.5,2.7-10.3,3.6s-8.4,1.3-13.7,1.3h-19.1
					c-0.6,0-1.2-0.1-1.8-0.2c-0.6-0.2-1-0.4-1.4-0.8s-0.6-0.9-0.8-1.5c-0.1-0.6-0.1-1.4,0.1-2.3L281,42.7c0.3-1.7,1-2.9,2-3.7
					s2.3-1.1,3.7-1.1h18.1c5.9,0,10.9,0.6,14.9,1.7c4,1.2,7.3,2.9,10,5.2s4.7,5.1,6,8.5C337.1,56.7,337.8,60.6,337.8,65z
					 M321.8,66.8c0-2.4-0.3-4.7-1-6.8s-1.7-3.9-3.2-5.4s-3.4-2.7-5.6-3.5c-2.3-0.8-5.4-1.3-9.2-1.3h-7.9l-10.3,51h8
					c4.1,0,7.5-0.5,10.2-1.5c2.8-1,5.2-2.3,7.3-4.1c2.1-1.7,3.9-3.7,5.4-6s2.7-4.6,3.7-7.2c0.9-2.5,1.6-5.1,2.1-7.7
					S321.8,69.3,321.8,66.8z"/>
				<path class="st0" d="M384.7,102.7c0,0.3,0,0.7-0.1,1.3s-0.2,1.3-0.3,2.1c-0.1,0.8-0.3,1.6-0.5,2.4s-0.5,1.6-0.8,2.2
					c-0.3,0.7-0.6,1.2-1,1.7c-0.4,0.4-0.8,0.6-1.3,0.6h-34.4c-0.6,0-1.2-0.1-1.7-0.3c-0.5-0.2-0.9-0.5-1.3-0.9
					c-0.3-0.4-0.6-0.9-0.7-1.5s-0.1-1.3,0.1-2.2L356.4,40c0-0.4,0.2-0.7,0.5-1s0.8-0.6,1.4-0.8c0.6-0.2,1.4-0.3,2.4-0.4
					s2.2-0.1,3.7-0.1s2.7,0,3.7,0.1s1.7,0.2,2.3,0.4c0.5,0.2,0.9,0.4,1.1,0.8c0.2,0.3,0.2,0.7,0.1,1l-12.1,60.4h23.6
					c0.5,0,0.9,0.2,1.1,0.6C384.6,101.4,384.7,102,384.7,102.7z"/>
			</g>
			<path class="st1" d="M179.5,135.3c14.2-29.3,14.1-62.2-0.3-98.6H40.5c17.1,45.6,11.1,86.5-15.9,123
				C90.7,158.5,147.8,152.9,179.5,135.3"/>
			<g>
				<g>
					<g>
						<defs>
							<rect id="SVGID_1_" x="45.9" y="40.5" width="138.5" height="75.2"/>
						</defs>
						<clipPath id="SVGID_2_">
							<use xlink:href="#SVGID_1_"  style="overflow:visible;"/>
						</clipPath>
					</g>
				</g>
			</g>
			<g>
				<g>
					<defs>
						<path id="SVGID_3_" d="M98.7,155.7c33.7-3.6,61.8-9.8,80.8-20.4c-2.8,5.7-6.1,11.3-9.9,16.8c12.1-17.2,18.9-35.6,20.2-55.4
							C174.1,118,145.5,140.1,98.7,155.7"/>
					</defs>
					<clipPath id="SVGID_4_">
						<use xlink:href="#SVGID_3_"  style="overflow:visible;"/>
					</clipPath>
					
						<linearGradient id="SVGID_5_" gradientUnits="userSpaceOnUse" x1="1197.2112" y1="-140.4175" x2="1198.9775" y2="-140.4175" gradientTransform="matrix(0 -38.4514 69.7629 0 9940.1836 46198.957)">
						<stop  offset="0" style="stop-color:#F59E00"/>
						<stop  offset="0.35" style="stop-color:#F7A600"/>
						<stop  offset="0.56" style="stop-color:#FFD600"/>
						<stop  offset="1" style="stop-color:#FFED00"/>
					</linearGradient>
					<rect x="98.7" y="96.6" class="st2" width="91.1" height="59.1"/>
				</g>
			</g>
			<g>
				<g>
					<defs>
						<path id="SVGID_6_" d="M24.5,159.7c-1.2,1.6-2.4,3.2-3.7,4.8h138.7c8.3-9.3,15-19.1,19.9-29.2
							C147.8,152.9,90.7,158.5,24.5,159.7"/>
					</defs>
					<clipPath id="SVGID_7_">
						<use xlink:href="#SVGID_6_"  style="overflow:visible;"/>
					</clipPath>
					
						<linearGradient id="SVGID_8_" gradientUnits="userSpaceOnUse" x1="1184.8164" y1="-120.1214" x2="1186.5826" y2="-120.1214" gradientTransform="matrix(89.7923 0 0 16.5508 -106366.4844 2138.0059)">
						<stop  offset="0" style="stop-color:#006B33"/>
						<stop  offset="0.3" style="stop-color:#007034"/>
						<stop  offset="0.68" style="stop-color:#00923F"/>
						<stop  offset="1" style="stop-color:#009640"/>
					</linearGradient>
					<rect x="20.9" y="135.3" class="st3" width="158.6" height="29.2"/>
				</g>
			</g>
			<g>
				<path class="st4" d="M231.5,162.9c-0.1,0.4-0.2,0.7-0.4,1c-0.2,0.3-0.4,0.5-0.7,0.7s-0.5,0.3-0.8,0.4c-0.3,0.1-0.6,0.1-0.9,0.1
					H226c-0.6,0-1.1-0.1-1.4-0.2c-0.4-0.1-0.7-0.3-1-0.6s-0.5-0.7-0.7-1.2s-0.4-1.1-0.7-1.9l-4.6-14c-0.4-1.1-0.7-2.2-1-3.3
					s-0.6-2.2-0.9-3.3l0,0c-0.2,1.3-0.3,2.5-0.6,3.8c-0.2,1.2-0.4,2.5-0.7,3.7l-3.2,16c0,0.2-0.1,0.3-0.2,0.4
					c-0.1,0.1-0.3,0.2-0.5,0.3s-0.6,0.1-0.9,0.2c-0.4,0-0.8,0.1-1.4,0.1s-1,0-1.4-0.1c-0.4,0-0.6-0.1-0.8-0.2
					c-0.2-0.1-0.3-0.2-0.4-0.3s-0.1-0.3,0-0.4l5.6-28.1c0.1-0.8,0.5-1.3,1-1.7s1.1-0.6,1.7-0.6h3.3c0.5,0,1,0.1,1.4,0.2
					c0.4,0.1,0.7,0.3,1,0.6s0.5,0.6,0.7,1s0.4,0.9,0.6,1.5l4.7,14.1c0.3,0.9,0.6,1.8,0.8,2.7c0.2,0.9,0.5,1.8,0.8,2.7l0,0
					c0.2-1.2,0.4-2.3,0.6-3.6c0.2-1.2,0.4-2.4,0.7-3.6l3-14.7c0-0.2,0.1-0.3,0.2-0.4c0.1-0.1,0.3-0.2,0.5-0.3s0.5-0.1,0.9-0.2
					c0.4,0,0.8-0.1,1.4-0.1s1,0,1.4,0.1c0.4,0,0.7,0.1,0.8,0.2c0.2,0.1,0.3,0.2,0.4,0.3s0.1,0.3,0,0.4L231.5,162.9z"/>
				<path class="st4" d="M257.7,164.3c-0.1,0.3-0.3,0.6-0.8,0.7c-0.4,0.1-1.2,0.2-2.1,0.2c-0.5,0-0.9,0-1.2,0
					c-0.3,0-0.6-0.1-0.8-0.2c-0.2-0.1-0.3-0.2-0.4-0.3s-0.1-0.3,0-0.4l0.7-3.5c-0.2,0.5-0.6,1.1-1.2,1.6c-0.5,0.6-1.2,1.1-1.9,1.6
					c-0.7,0.5-1.5,0.9-2.4,1.2s-1.8,0.5-2.7,0.5c-1.3,0-2.4-0.2-3.2-0.7c-0.9-0.4-1.5-1.1-2.1-1.8c-0.5-0.8-0.9-1.6-1.1-2.6
					s-0.3-2-0.3-3.1c0-1,0.1-2.1,0.3-3.3c0.2-1.2,0.5-2.4,0.9-3.6c0.4-1.2,0.9-2.3,1.5-3.4c0.6-1.1,1.4-2.1,2.3-2.9s1.9-1.5,3-2
					s2.4-0.8,3.9-0.8c1.3,0,2.5,0.3,3.5,0.8c1,0.6,1.9,1.4,2.7,2.4l0.4-1.9c0.1-0.3,0.3-0.6,0.8-0.7c0.4-0.1,1.2-0.2,2.1-0.2
					c0.5,0,0.9,0,1.2,0.1c0.3,0,0.6,0.1,0.8,0.2c0.2,0.1,0.3,0.2,0.4,0.3s0.1,0.3,0,0.4L257.7,164.3z M254.7,149.2
					c-0.6-0.9-1.2-1.5-1.9-2c-0.7-0.4-1.5-0.7-2.4-0.7c-0.7,0-1.3,0.2-1.9,0.5s-1.1,0.8-1.5,1.3s-0.8,1.2-1.1,1.9
					c-0.3,0.7-0.6,1.4-0.8,2.2c-0.2,0.8-0.4,1.5-0.5,2.3s-0.2,1.5-0.2,2.2c0,0.5,0,0.9,0.1,1.4c0.1,0.4,0.2,0.8,0.4,1.2
					c0.2,0.3,0.4,0.6,0.8,0.8c0.3,0.2,0.7,0.3,1.2,0.3c0.7,0,1.4-0.2,2.2-0.6c0.7-0.4,1.4-1,2.1-1.7c0.6-0.7,1.2-1.6,1.7-2.6
					s0.8-2,1.1-3.1L254.7,149.2z"/>
				<path class="st4" d="M280.7,142.9c0,0.2,0,0.4,0,0.6c0,0.2-0.1,0.5-0.1,0.8c-0.1,0.3-0.1,0.6-0.2,0.9c-0.1,0.3-0.2,0.6-0.3,0.8
					s-0.3,0.4-0.4,0.6c-0.2,0.2-0.3,0.2-0.5,0.2h-4.7l-2,10.1c0,0.2-0.1,0.5-0.1,0.9c0,0.3-0.1,0.6-0.1,0.8c0,0.6,0.2,1.1,0.5,1.4
					s0.8,0.4,1.4,0.4c0.4,0,0.7,0,1-0.1s0.5-0.1,0.7-0.2c0.2-0.1,0.4-0.1,0.5-0.2c0.1-0.1,0.3-0.1,0.4-0.1c0.1,0,0.2,0.1,0.3,0.2
					c0.1,0.1,0.1,0.3,0.1,0.6s0,0.6-0.1,1s-0.1,0.8-0.3,1.1c-0.1,0.4-0.2,0.7-0.3,1s-0.3,0.5-0.4,0.7c-0.1,0.1-0.4,0.3-0.6,0.4
					c-0.3,0.1-0.6,0.2-1,0.3s-0.8,0.2-1.3,0.2c-0.4,0.1-0.9,0.1-1.4,0.1c-1,0-1.8-0.1-2.5-0.3s-1.3-0.5-1.8-1
					c-0.5-0.4-0.9-1-1.1-1.7c-0.2-0.7-0.4-1.5-0.4-2.5c0-0.2,0-0.4,0-0.6c0-0.2,0-0.5,0.1-0.7c0-0.3,0.1-0.5,0.1-0.8
					s0.1-0.5,0.1-0.7l2.1-10.5h-2.6c-0.2,0-0.4-0.1-0.5-0.2c-0.1-0.1-0.1-0.4-0.1-0.8c0-0.3,0-0.6,0.1-1.1c0.1-0.4,0.1-0.9,0.3-1.3
					c0.1-0.4,0.3-0.8,0.5-1.1s0.5-0.5,0.7-0.5h2.6l1-4.8c0-0.2,0.1-0.3,0.2-0.4c0.1-0.1,0.3-0.2,0.6-0.3c0.2-0.1,0.6-0.2,1-0.2
					s0.9-0.1,1.5-0.1s1.1,0,1.5,0.1c0.4,0,0.7,0.1,0.9,0.2c0.2,0.1,0.4,0.2,0.4,0.3c0.1,0.1,0.1,0.3,0.1,0.4l-1,4.8h4.7
					c0.3,0,0.5,0.1,0.6,0.3C280.7,142.4,280.7,142.6,280.7,142.9z"/>
			</g>
			<g>
				<path class="st4" d="M300.3,164.3c-0.1,0.3-0.3,0.6-0.8,0.7c-0.4,0.1-1.2,0.2-2.1,0.2c-0.5,0-0.9,0-1.2,0s-0.6-0.1-0.8-0.2
					c-0.2-0.1-0.3-0.2-0.4-0.3s-0.1-0.3,0-0.4l0.7-3.5c-0.2,0.5-0.6,1.1-1.2,1.6c-0.5,0.6-1.2,1.1-1.9,1.6s-1.5,0.9-2.4,1.2
					s-1.8,0.5-2.7,0.5c-1.3,0-2.4-0.2-3.2-0.7c-0.9-0.4-1.5-1.1-2.1-1.8c-0.5-0.8-0.9-1.6-1.1-2.6c-0.2-1-0.3-2-0.3-3.1
					c0-1,0.1-2.1,0.3-3.3s0.5-2.4,0.9-3.6c0.4-1.2,0.9-2.3,1.5-3.4c0.6-1.1,1.4-2.1,2.3-2.9c0.9-0.9,1.9-1.5,3-2s2.4-0.8,3.9-0.8
					c1.3,0,2.5,0.3,3.5,0.8c1,0.6,1.9,1.4,2.7,2.4l0.4-1.9c0.1-0.3,0.3-0.6,0.8-0.7c0.4-0.1,1.2-0.2,2.1-0.2c0.5,0,0.9,0,1.2,0.1
					c0.3,0,0.6,0.1,0.8,0.2c0.2,0.1,0.3,0.2,0.4,0.3c0.1,0.1,0.1,0.3,0,0.4L300.3,164.3z M297.4,149.2c-0.6-0.9-1.2-1.5-1.9-2
					c-0.7-0.4-1.5-0.7-2.4-0.7c-0.7,0-1.3,0.2-1.9,0.5c-0.6,0.3-1.1,0.8-1.5,1.3s-0.8,1.2-1.1,1.9s-0.6,1.4-0.8,2.2
					s-0.4,1.5-0.5,2.3s-0.2,1.5-0.2,2.2c0,0.5,0,0.9,0.1,1.4c0.1,0.4,0.2,0.8,0.4,1.2c0.2,0.3,0.4,0.6,0.8,0.8
					c0.3,0.2,0.7,0.3,1.2,0.3c0.7,0,1.4-0.2,2.2-0.6c0.7-0.4,1.4-1,2.1-1.7c0.6-0.7,1.2-1.6,1.7-2.6s0.8-2,1.1-3.1L297.4,149.2z"/>
				<path class="st4" d="M312.5,164.3c0,0.2-0.1,0.3-0.2,0.4c-0.1,0.1-0.3,0.2-0.5,0.3s-0.6,0.1-1,0.2c-0.4,0-0.9,0.1-1.5,0.1
					s-1.1,0-1.5-0.1c-0.4,0-0.7-0.1-0.9-0.2c-0.2-0.1-0.4-0.2-0.4-0.3c-0.1-0.1-0.1-0.3-0.1-0.4l6.4-31.7c0-0.2,0.1-0.3,0.2-0.4
					c0.1-0.1,0.3-0.2,0.6-0.3s0.6-0.2,1-0.2s0.9-0.1,1.5-0.1s1.1,0,1.5,0.1c0.4,0,0.7,0.1,0.9,0.2c0.2,0.1,0.3,0.2,0.4,0.3
					c0.1,0.1,0.1,0.3,0,0.4L312.5,164.3z"/>
			</g>
		</g>
		<g>
			
				<linearGradient id="SVGID_9_" gradientUnits="userSpaceOnUse" x1="499.1" y1="113.7" x2="599.7" y2="113.7" gradientTransform="matrix(1 0 0 -1 0 200)">
				<stop  offset="0" style="stop-color:#006B33"/>
				<stop  offset="0.3" style="stop-color:#007034"/>
				<stop  offset="0.68" style="stop-color:#00923F"/>
				<stop  offset="1" style="stop-color:#009640"/>
			</linearGradient>
			<path class="st5" d="M549.4,36c-27.8,0-50.3,22.5-50.3,50.3s22.5,50.3,50.3,50.3s50.3-22.5,50.3-50.3
				C599.7,58.6,577.2,36,549.4,36z M549.4,111.7c-14,0-25.4-11.4-25.4-25.4s11.4-25.4,25.4-25.4s25.4,11.4,25.4,25.4
				C574.8,100.3,563.4,111.7,549.4,111.7z"/>
			<path class="st0" d="M599.4,81L599.4,81c-0.1-0.8-0.2-1.5-0.3-2.2c0-0.2-0.1-0.4-0.1-0.6c-0.1-0.5-0.2-1.1-0.3-1.6
				c-0.1-0.3-0.1-0.6-0.2-1c-0.1-0.3-0.1-0.6-0.2-0.8l0,0C593.1,52.5,573.2,36,549.4,36c-27.3,0-49.5,21.7-50.3,48.8h7
				c6.1-1.8,15.3,14.8,20.8,13.4C516.4,73.9,538,61,549.4,61c10.5,0,19.5,6.4,23.3,15.4c0.1,0.2,0.2,0.4,0.2,0.6
				c0.1,0.2,0.2,0.4,0.2,0.6c0.1,0.2,0.1,0.3,0.2,0.5c0.1,0.2,0.2,0.4,0.2,0.7c0,0.1,0.1,0.2,0.1,0.3c0.4,1.4,0.7,2.8,0.9,4.3
				c0.1,1,0.2,2,0.2,3.1c0,7.2-3,13.8-7.9,18.4c11.6-1.6,25.7-9,30.9-11.9c0.8-1.7,1.5-3.5,1.9-5.3c0-0.4,0-0.8,0-1.2
				C599.7,84.5,599.6,82.7,599.4,81z"/>
			<g>
				
					<linearGradient id="SVGID_10_" gradientUnits="userSpaceOnUse" x1="583.25" y1="95.5689" x2="583.25" y2="109.3997" gradientTransform="matrix(1 0 0 -1 0 200)">
					<stop  offset="0" style="stop-color:#F59E00"/>
					<stop  offset="0.2747" style="stop-color:#F7A600"/>
					<stop  offset="0.56" style="stop-color:#FFD600"/>
					<stop  offset="1" style="stop-color:#FFED00"/>
				</linearGradient>
				<path class="st6" d="M599.7,87.1c-6.5,6-16.7,11.9-31.8,16.6c-0.3,0.4-0.7,0.7-1.1,1.1c12.9-1.3,23.7-3.4,31.2-6.8
					c0.1-0.3,0.3-0.7,0.6-1.3C599.3,93.5,599.6,90.3,599.7,87.1z"/>
				
					<linearGradient id="SVGID_11_" gradientUnits="userSpaceOnUse" x1="598.0053" y1="101.837" x2="598.0053" y2="102.0682" gradientTransform="matrix(1 0 0 -1 0 200)">
					<stop  offset="0" style="stop-color:#F59E00"/>
					<stop  offset="0.2747" style="stop-color:#F7A600"/>
					<stop  offset="0.56" style="stop-color:#FFD600"/>
					<stop  offset="1" style="stop-color:#FFED00"/>
				</linearGradient>
				<path class="st7" d="M598.1,97.9L598.1,97.9C597.9,98.2,597.8,98.3,598.1,97.9z"/>
			</g>
			
				<linearGradient id="SVGID_12_" gradientUnits="userSpaceOnUse" x1="2108.5129" y1="1191.7748" x2="2108.5129" y2="1192.1196" gradientTransform="matrix(-0.671 -0.7414 -0.7414 0.671 2797.5374 833.8528)">
				<stop  offset="0" style="stop-color:#F59E00"/>
				<stop  offset="0.2747" style="stop-color:#F7A600"/>
				<stop  offset="0.56" style="stop-color:#FFD600"/>
				<stop  offset="1" style="stop-color:#FFED00"/>
			</linearGradient>
			<path class="st8" d="M498.7,70.5L498.7,70.5C499.3,70.4,499.4,70.4,498.7,70.5z"/>
			<g>
				
					<linearGradient id="SVGID_13_" gradientUnits="userSpaceOnUse" x1="433.4" y1="103.4" x2="533.3" y2="103.4" gradientTransform="matrix(1 0 0 -1 0 200)">
					<stop  offset="0" style="stop-color:#006B33"/>
					<stop  offset="0.3" style="stop-color:#007034"/>
					<stop  offset="0.68" style="stop-color:#00923F"/>
					<stop  offset="1" style="stop-color:#009640"/>
				</linearGradient>
				<path class="st9" d="M482.9,171.7c-31.9,0-49.5-25-49.5-49.9c0-8.9,2.3-17.8,6.8-25.4c10.2-17.3,52.9-74.9,52.9-74.9h28.8
					l-38.3,54.8c27.5,0.2,49.7,17.6,49.7,45C533.3,149,510.6,171.7,482.9,171.7z M483.1,96.4c-13.9,0-25.3,11.2-25.3,24.7
					c0,13.9,11.4,25.3,25.3,25.3c13.5,0,24.7-11.4,24.7-25.3C507.8,107.6,496.7,96.4,483.1,96.4z"/>
			</g>
			<g>
				<path d="M544.2,163c0,0.4,0.1,0.7,0.1,0.9s-0.1,0.4-0.2,0.5c-0.1,0.1-0.4,0.2-0.7,0.2s-0.7,0-1.3,0c-0.4,0-0.7,0-0.9,0
					s-0.4,0-0.6-0.1c-0.1,0-0.2-0.1-0.3-0.2c-0.1-0.1-0.1-0.2-0.1-0.3l-0.5-3.9h-7.4l-2,3.9c-0.1,0.1-0.2,0.3-0.2,0.4
					c-0.1,0.1-0.2,0.2-0.4,0.2c-0.2,0.1-0.4,0.1-0.7,0.1s-0.7,0-1.1,0c-0.5,0-0.8,0-1.1,0s-0.4-0.1-0.5-0.2c-0.1-0.1-0.1-0.3,0-0.5
					s0.2-0.5,0.4-0.8l9.5-17.4c0.1-0.2,0.2-0.3,0.3-0.4s0.2-0.2,0.4-0.2c0.2-0.1,0.4-0.1,0.8-0.1c0.3,0,0.7,0,1.3,0s1.1,0,1.4,0
					c0.3,0,0.6,0,0.8,0.1s0.3,0.1,0.4,0.2c0.1,0.1,0.1,0.3,0.1,0.5L544.2,163z M538.2,148.6L538.2,148.6l-4.4,8.3h5.5L538.2,148.6z"
					/>
				<path d="M561.7,153.5c0,0.4,0,0.7-0.1,1.1c0,0.4-0.1,0.7-0.2,1.1l-1.7,8.3c0,0.1-0.1,0.2-0.1,0.3c-0.1,0.1-0.2,0.1-0.3,0.2
					c-0.2,0-0.4,0.1-0.6,0.1c-0.2,0-0.6,0-0.9,0c-0.4,0-0.7,0-0.9,0s-0.4-0.1-0.6-0.1c-0.1,0-0.2-0.1-0.3-0.2c0-0.1-0.1-0.2,0-0.3
					l1.6-8.1c0-0.2,0.1-0.5,0.1-0.7c0-0.3,0-0.5,0-0.7c0-0.5-0.1-0.8-0.3-1.1s-0.5-0.4-1-0.4c-0.4,0-0.8,0.1-1.3,0.4
					c-0.5,0.3-0.9,0.6-1.3,1.1c-0.4,0.5-0.8,1-1.1,1.6s-0.5,1.2-0.7,1.9l-1.2,6.1c0,0.1-0.1,0.2-0.1,0.3c-0.1,0.1-0.2,0.1-0.3,0.2
					c-0.2,0-0.4,0.1-0.6,0.1c-0.3,0-0.6,0-0.9,0c-0.4,0-0.7,0-0.9,0s-0.4-0.1-0.6-0.1c-0.1,0-0.2-0.1-0.3-0.2c0-0.1-0.1-0.2,0-0.3
					l2.7-13.5c0-0.1,0.1-0.2,0.1-0.3s0.2-0.1,0.3-0.2c0.1,0,0.3-0.1,0.5-0.1s0.5,0,0.8,0s0.6,0,0.8,0s0.4,0.1,0.5,0.1
					s0.2,0.1,0.2,0.2c0,0.1,0,0.2,0,0.3l-0.4,2.2c0.2-0.4,0.5-0.7,0.8-1.1c0.4-0.4,0.8-0.7,1.2-1c0.5-0.3,1-0.5,1.5-0.7
					s1.1-0.3,1.7-0.3c0.7,0,1.3,0.1,1.8,0.3s0.9,0.5,1.2,0.8c0.3,0.4,0.5,0.8,0.6,1.2C561.6,152.5,561.7,153,561.7,153.5z"/>
				<path d="M579,155c0,0.7-0.1,1.5-0.2,2.2c-0.1,0.8-0.4,1.5-0.6,2.3s-0.7,1.4-1.1,2.1c-0.5,0.6-1,1.2-1.6,1.7s-1.4,0.9-2.2,1.2
					s-1.8,0.4-2.8,0.4s-1.9-0.1-2.6-0.4c-0.7-0.2-1.4-0.6-1.9-1c-0.5-0.5-0.9-1-1.1-1.7c-0.2-0.7-0.4-1.4-0.4-2.3
					c0-0.7,0.1-1.5,0.2-2.2c0.1-0.8,0.4-1.5,0.6-2.2s0.7-1.4,1.1-2.1c0.5-0.7,1-1.2,1.7-1.7c0.6-0.5,1.4-0.9,2.2-1.2
					s1.8-0.4,2.8-0.4s1.9,0.1,2.6,0.4c0.7,0.2,1.4,0.6,1.9,1c0.5,0.5,0.9,1,1.1,1.7S579,154.1,579,155z M575.1,155.3
					c0-0.4,0-0.8-0.1-1.1s-0.2-0.6-0.4-0.8s-0.5-0.4-0.8-0.5s-0.7-0.2-1.1-0.2c-0.5,0-1,0.1-1.4,0.3s-0.8,0.5-1.1,0.8
					s-0.6,0.7-0.8,1.2c-0.2,0.4-0.4,0.9-0.6,1.4c-0.2,0.5-0.3,1-0.3,1.5s-0.1,1-0.1,1.4s0,0.8,0.1,1.1s0.2,0.6,0.4,0.8
					s0.5,0.4,0.8,0.5s0.7,0.2,1.1,0.2c0.5,0,1-0.1,1.4-0.3s0.8-0.5,1.1-0.8s0.6-0.7,0.8-1.2c0.2-0.4,0.4-0.9,0.6-1.4
					c0.2-0.5,0.3-1,0.3-1.5S575.1,155.7,575.1,155.3z"/>
				<path d="M592.2,151.1c0,0.1,0,0.3,0,0.5s-0.1,0.5-0.2,0.7c-0.1,0.2-0.2,0.5-0.3,0.6c-0.1,0.2-0.2,0.3-0.3,0.3s-0.3,0-0.5-0.1
					s-0.4-0.2-0.6-0.3c-0.3-0.1-0.6-0.2-0.9-0.3c-0.3-0.1-0.7-0.1-1.2-0.1c-0.4,0-0.7,0-0.9,0.1c-0.3,0.1-0.5,0.2-0.7,0.4
					s-0.3,0.3-0.4,0.6c-0.1,0.2-0.1,0.4-0.1,0.7s0.1,0.6,0.4,0.8c0.3,0.2,0.6,0.4,1,0.6c0.4,0.2,0.8,0.4,1.2,0.6
					c0.4,0.2,0.9,0.5,1.2,0.8s0.7,0.7,1,1.1c0.3,0.4,0.4,1,0.4,1.6c0,0.8-0.1,1.5-0.4,2.1c-0.3,0.7-0.7,1.2-1.3,1.7s-1.2,0.8-2,1.1
					s-1.7,0.4-2.7,0.4c-0.5,0-0.9,0-1.4-0.1c-0.4-0.1-0.8-0.2-1.2-0.3s-0.6-0.2-0.9-0.3s-0.4-0.3-0.5-0.4c-0.1-0.1-0.1-0.2-0.2-0.3
					c0-0.1,0-0.2,0-0.3s0-0.2,0-0.4c0-0.1,0-0.3,0.1-0.5c0-0.2,0.1-0.3,0.1-0.5s0.1-0.3,0.2-0.5c0.1-0.1,0.1-0.3,0.2-0.3
					c0.1-0.1,0.1-0.1,0.2-0.1c0.1,0,0.3,0.1,0.5,0.2c0.2,0.1,0.4,0.3,0.7,0.4c0.3,0.1,0.6,0.3,1,0.4c0.4,0.1,0.9,0.2,1.5,0.2
					c0.4,0,0.8,0,1.1-0.1s0.6-0.2,0.8-0.4s0.4-0.4,0.4-0.6c0.1-0.2,0.1-0.5,0.1-0.7c0-0.4-0.1-0.6-0.4-0.9c-0.2-0.2-0.6-0.4-0.9-0.6
					c-0.4-0.2-0.8-0.4-1.2-0.6c-0.4-0.2-0.8-0.4-1.2-0.7s-0.7-0.7-0.9-1.1c-0.2-0.4-0.4-1-0.4-1.6c0-0.7,0.1-1.4,0.4-2
					c0.3-0.6,0.7-1.2,1.2-1.6c0.5-0.5,1.2-0.8,1.9-1.1s1.6-0.4,2.5-0.4c0.4,0,0.8,0,1.2,0.1s0.8,0.1,1.1,0.2
					c0.3,0.1,0.6,0.2,0.8,0.3s0.4,0.2,0.5,0.3C592.2,150.7,592.2,150.8,592.2,151.1z"/>
			</g>
		</g>
		<rect x="409.5" y="31.2" width="0.7" height="145.7"/>
	</g>
</g>
</svg>
